<?xml version="1.0" encoding="UTF-8" standalone="no"?>
<!-- Generator: Adobe Illustrator 19.2.1, SVG Export Plug-In . SVG Version: 6.00 Build 0)  -->

<svg
   xmlns:dc="http://purl.org/dc/elements/1.1/"
   xmlns:cc="http://creativecommons.org/ns#"
   xmlns:rdf="http://www.w3.org/1999/02/22-rdf-syntax-ns#"
   xmlns:svg="http://www.w3.org/2000/svg"
   xmlns="http://www.w3.org/2000/svg"
   xmlns:sodipodi="http://sodipodi.sourceforge.net/DTD/sodipodi-0.dtd"
   xmlns:inkscape="http://www.inkscape.org/namespaces/inkscape"
   version="1.1"
   id="Ebene_1"
   x="0px"
   y="0px"
   viewBox="0 0 103.5 20.2"
   style="enable-background:new 0 0 103.5 20.2;"
   xml:space="preserve"
   sodipodi:docname="menu-icons.svg"
   inkscape:version="0.92.0 r15299"><metadata
     id="metadata3738"><rdf:RDF><cc:Work
         rdf:about=""><dc:format>image/svg+xml</dc:format><dc:type
           rdf:resource="http://purl.org/dc/dcmitype/StillImage" /></cc:Work></rdf:RDF></metadata><defs
     id="defs3736" /><sodipodi:namedview
     pagecolor="#ffffff"
     bordercolor="#666666"
     borderopacity="1"
     objecttolerance="10"
     gridtolerance="10"
     guidetolerance="10"
     inkscape:pageopacity="0"
     inkscape:pageshadow="2"
     inkscape:window-width="858"
     inkscape:window-height="664"
     id="namedview3734"
     showgrid="false"
     inkscape:zoom="5"
     inkscape:cx="50.484407"
     inkscape:cy="3.7054285"
     inkscape:window-x="270"
     inkscape:window-y="113"
     inkscape:window-maximized="0"
     inkscape:current-layer="Ebene_1" /><style
     type="text/css"
     id="style3701">
	.st0{fill:#971579;}
	.st1{fill:none;stroke:#FFFFFF;stroke-width:1.021;stroke-linecap:round;stroke-miterlimit:10;}
	.st2{fill:#F29000;}
	.st3{fill:none;stroke:#FFFFFF;stroke-width:1.128;}
	.st4{fill:#FFFFFF;}
	.st5{fill:#3DA2DA;}
	.st6{fill:none;stroke:#FFFFFF;stroke-width:1.024;stroke-linecap:round;stroke-linejoin:round;}
	.st7{fill:none;stroke:#FFFFFF;stroke-width:0.731;stroke-linecap:round;}
	.st8{fill:#9B9B9B;}
</style><title
     id="title3703">Klammer</title><g
     id="g3767"><rect
       id="rect3705"
       height="20.2"
       width="23.7"
       class="st0"
       y="0" /><g
       id="g3709"><path
         id="path3707"
         d="M12,5.6l-5.9,5.9c-0.9,0.9-0.5,2.6,0.5,3.5c0.9,0.9,2.5,0.9,3.4,0l7.4-7.4c0.7-0.7,0.7-1.8,0-2.5   c-0.7-0.7-1.8-0.7-2.5,0l-6,6"
         class="st1" /></g></g><g
     id="g3773"><rect
       id="rect3711"
       height="20.2"
       width="23.7"
       class="st2"
       y="0"
       x="26.6" /><g
       id="g3717"><path
         id="path3713"
         d="M38.1,16.2c1.4-1.4,4.2-5.9,4.2-8.2c0-2.3-1.9-4.2-4.2-4.2c-2.3,0-4.2,1.9-4.2,4.2   C33.9,10.3,36.6,14.9,38.1,16.2z"
         class="st3" /><path
         id="path3715"
         d="M38.1,8.9c0.7,0,1.2-0.5,1.2-1.2c0-0.7-0.5-1.2-1.2-1.2c-0.7,0-1.2,0.5-1.2,1.2C36.9,8.4,37.5,8.9,38.1,8.9"
         class="st4" /></g></g><g
     id="g3777"><rect
       id="rect3719"
       height="20.2"
       width="23.7"
       class="st5"
       y="0"
       x="53.3" /><polyline
       id="polyline3721"
       points="58.4,13 67.7,3.7 71.1,4.5 72.1,8.1 62.8,17.4 61.7,13.8 58.4,13 "
       class="st6" /></g><line
     class="st7"
     x1="62.9"
     y1="10.9"
     x2="65"
     y2="13"
     id="line3723" /><line
     class="st7"
     x1="65"
     y1="8.8"
     x2="67.1"
     y2="10.9"
     id="line3725" /><line
     class="st7"
     x1="67.1"
     y1="6.7"
     x2="69.2"
     y2="8.8"
     id="line3727" /><g
     id="g3781"><rect
       id="rect3729"
       height="20.2"
       width="23.7"
       class="st8"
       y="0"
       x="79.9" /><path
       id="path3731"
       d="M97.7,13.9c0,0-3.1-2.3-5.6,0V7.5c0,0,0-0.3,0.2-0.5c1.4-1.8,3.7-1.8,5.1-0.1c0.3,0.4,0.3,0.8,0.3,0.8V13.9z   M91,13.9c-2.6-2.3-5.6,0-5.6,0V7.7c0,0,0-0.4,0.3-0.8c1.5-1.7,3.7-1.7,5.1,0.1C91,7.2,91,7.5,91,7.5V13.9z M98.8,7.5  c0-0.4-0.1-0.8-0.4-1.1C96.6,4.1,93.8,4,91.8,6c-0.1,0.1-0.2,0.2-0.3,0.3C91.4,6.2,91.3,6,91.2,6c-2-2-4.8-1.8-6.6,0.4  c-0.3,0.3-0.4,0.7-0.4,1.1c0,2,0,2.4,0,3.6c0,1.4,0,2.8,0,4.2c0.1,0,1,0.3,1.4-0.2c0.4-0.6,1-1,1.8-1.2c1.4-0.3,2.5,0.2,3.4,1.3  c0.2,0.3,0.5,0.4,0.8,0.4c0.3,0,0.5-0.1,0.8-0.4c0.9-1.1,2-1.6,3.4-1.3c0.7,0.2,1.4,0.6,1.8,1.2c0.3,0.5,1.2,0.3,1.4,0.2  c0-1.4,0-2.8,0-4.2C98.8,9.9,98.8,9.5,98.8,7.5"
       class="st4" /></g></svg>